<?xml version="1.0" encoding="UTF-8"?>
<!DOCTYPE svg PUBLIC "-//W3C//DTD SVG 1.1//EN" "http://www.w3.org/Graphics/SVG/1.1/DTD/svg11.dtd">
<svg xmlns="http://www.w3.org/2000/svg" version="1.1" width="100px" height="100px" style="shape-rendering:geometricPrecision; text-rendering:geometricPrecision; image-rendering:optimizeQuality; fill-rule:evenodd; clip-rule:evenodd" xmlns:xlink="http://www.w3.org/1999/xlink">
<g><path style="opacity:0.977" fill="#eceded" d="M 78.5,19.5 C 71.011,20.329 63.3443,20.829 55.5,21C 53.6976,24.3001 51.6976,27.4668 49.5,30.5C 47.3024,27.4668 45.3024,24.3001 43.5,21C 34.5062,20.5002 25.5062,20.3336 16.5,20.5C 18.0715,25.6546 20.2382,30.6546 23,35.5C 30.5866,48.338 37.9199,61.338 45,74.5C 48,81.1667 51,81.1667 54,74.5C 63.0218,57.776 72.5218,41.4426 82.5,25.5C 82.5569,26.609 82.8902,27.609 83.5,28.5C 83.8143,31.4887 85.1476,33.822 87.5,35.5C 91.076,44.4735 93.076,53.8068 93.5,63.5C 94.0389,76.4364 88.3723,85.2698 76.5,90C 67.8256,90.9401 59.1589,91.9401 50.5,93C 43.7711,95.2433 36.9378,97.0766 30,98.5C 23.1529,97.6644 17.8195,94.3311 14,88.5C 4.55993,69.2483 3.05993,49.4149 9.5,29C 8.42575,28.2613 7.75908,27.2613 7.5,26C 13.0585,18.1041 19.7252,11.1041 27.5,5C 48.553,-3.98976 65.553,0.843569 78.5,19.5 Z"/></g>
<g><path style="opacity:0.682" fill="#a5b0c5" d="M 9.5,9.5 C 11.2959,10.7927 12.9625,12.2927 14.5,14C 11.6305,17.267 9.29713,16.767 7.5,12.5C 8.19251,11.4822 8.85917,10.4822 9.5,9.5 Z"/></g>
<g><path style="opacity:0.99" fill="#080c09" d="M 78.5,19.5 C 82.9595,19.5222 84.2929,21.5222 82.5,25.5C 72.5218,41.4426 63.0218,57.776 54,74.5C 51,81.1667 48,81.1667 45,74.5C 37.9199,61.338 30.5866,48.338 23,35.5C 20.2382,30.6546 18.0715,25.6546 16.5,20.5C 25.5062,20.3336 34.5062,20.5002 43.5,21C 45.3024,24.3001 47.3024,27.4668 49.5,30.5C 51.6976,27.4668 53.6976,24.3001 55.5,21C 63.3443,20.829 71.011,20.329 78.5,19.5 Z"/></g>
<g><path style="opacity:1" fill="#01af6b" d="M 25.5,24.5 C 33.9292,39.6988 42.5958,54.6988 51.5,69.5C 51.3155,72.1731 50.1489,72.8398 48,71.5C 39.2995,56.294 30.7995,40.9606 22.5,25.5C 23.325,24.6143 24.325,24.281 25.5,24.5 Z"/></g>
<g><path style="opacity:1" fill="#2edc82" d="M 25.5,24.5 C 30.8746,24.1718 36.2079,24.5052 41.5,25.5C 43.6837,29.8811 46.3504,33.8811 49.5,37.5C 51.0712,36.0246 52.4045,34.358 53.5,32.5C 54.4584,32.9528 55.2917,33.6195 56,34.5C 58.0995,31.3001 59.9328,27.9667 61.5,24.5C 66.544,24.1725 71.544,24.5059 76.5,25.5C 68.6455,40.5542 60.3122,55.2209 51.5,69.5C 42.5958,54.6988 33.9292,39.6988 25.5,24.5 Z"/></g>
<g><path style="opacity:1" fill="#01b06c" d="M 61.5,24.5 C 59.9328,27.9667 58.0995,31.3001 56,34.5C 55.2917,33.6195 54.4584,32.9528 53.5,32.5C 54.5977,28.0682 57.2643,25.4016 61.5,24.5 Z"/></g>
<g><path style="opacity:0.898" fill="#a5afc0" d="M 87.5,35.5 C 85.1476,33.822 83.8143,31.4887 83.5,28.5C 87.6627,24.3228 90.9961,24.9895 93.5,30.5C 92.6653,33.5818 90.6653,35.2485 87.5,35.5 Z"/></g>
</svg>
