<?xml version="1.0" ?><svg id="Layer_1" style="enable-background:new 0 0 128 128;" version="1.1" viewBox="0 0 128 128" xml:space="preserve" xmlns="http://www.w3.org/2000/svg" xmlns:xlink="http://www.w3.org/1999/xlink"><style type="text/css">
	.st0{fill:#FFFFFF;}
	.st1{fill:#E4E4E7;}
	.st2{fill:none;stroke:#444B54;stroke-width:6;stroke-linecap:round;stroke-linejoin:round;stroke-miterlimit:10;}
	.st3{fill:#AFAFBC;}
	.st4{fill:#EAD063;}
	.st5{fill:#242426;}
	.st6{fill:#F9DED4;}
	.st7{fill:#D8AC9E;}
	.st8{fill:#FFD0FF;}
	.st9{fill:#6575C1;}
	.st10{fill:#786F74;}
	.st11{fill:#9B9BA5;}
	.st12{fill:#FFD2EA;}
	.st13{fill:#B78BA4;}
	.st14{fill:#444B54;}
	.st15{fill:#5D5D8C;}
	.st16{fill:none;stroke:#FFFFFF;stroke-width:6;stroke-linecap:round;stroke-linejoin:round;stroke-miterlimit:10;}
</style><g><circle class="st12" cx="64" cy="63.3" r="48"/></g><g><path class="st14" d="M64,114.3c-15.3,0-29.7-6.8-39.4-18.7c-1.1-1.3-0.9-3.2,0.4-4.2c1.3-1.1,3.2-0.9,4.2,0.4   c8.6,10.5,21.3,16.5,34.8,16.5c8.6,0,17-2.5,24.2-7.1c1.4-0.9,3.3-0.5,4.1,0.9c0.9,1.4,0.5,3.3-0.9,4.1   C83.3,111.5,73.8,114.3,64,114.3z"/></g><path class="st14" d="M114.4,55.7C110.7,31.1,89.5,12.3,64,12.3c-19.5,0-36.6,10.9-45.1,27.2C8.5,42.9,2.4,48.3,1.2,55.2  C-1.6,71.1,23.8,88.4,59,94.6c8.2,1.4,16.3,2.2,23.9,2.2c7.6,0,14.7-0.7,20.9-2.2c13.4-3.1,21.5-9.2,23-17.2  C128,70.2,123.7,62.5,114.4,55.7z M120.9,76.3c-1,5.4-7.7,9.9-18.4,12.4c-11.8,2.7-26.8,2.7-42.4-0.1c-34-6-54.8-21.6-52.9-32.4  c0.6-3.5,3.6-6.6,8.4-9c-1.1,3.4-1.9,6.9-2.3,10.5c-0.2,1.6,1,3.1,2.7,3.3c1.6,0.2,3.1-1,3.3-2.7C21.7,35.5,41,18.3,64,18.3  c24.8,0,45,20.2,45,45c0,5-0.8,9.9-2.4,14.6c-0.5,1.6,0.3,3.3,1.9,3.8c0.3,0.1,0.7,0.2,1,0.2c1.2,0,2.4-0.8,2.8-2  c1.8-5.1,2.7-10.5,2.7-15.9C119.5,68.3,121.5,72.5,120.9,76.3z"/><g><path class="st14" d="M82.9,96.7c-7.6,0-15.7-0.7-23.9-2.2C23.8,88.4-1.6,71.1,1.2,55.2c0.3-1.6,1.9-2.7,3.5-2.4   c1.6,0.3,2.7,1.8,2.4,3.5C5.2,67.1,26,82.7,60.1,88.7c15.6,2.8,30.7,2.8,42.4,0.1c10.7-2.5,17.4-7,18.4-12.4   c0.3-1.6,1.9-2.7,3.5-2.4c1.6,0.3,2.7,1.8,2.4,3.5c-1.4,8-9.6,14.1-23,17.2C97.6,96,90.5,96.7,82.9,96.7z"/></g><g><g><circle class="st13" cx="55.6" cy="65.2" r="9"/></g><g><circle class="st13" cx="58.5" cy="34.2" r="4"/></g><g><circle class="st14" cx="8.5" cy="8.2" r="4"/></g><g><circle class="st14" cx="118.5" cy="118.2" r="4"/></g><g><circle class="st13" cx="91.6" cy="56.6" r="7"/></g></g></svg>